<svg xmlns="http://www.w3.org/2000/svg" viewBox="0 0 192 192" width="192" height="192">
  <defs>
    <linearGradient id="grad" x1="0%" y1="0%" x2="100%" y2="100%">
      <stop offset="0%" stop-color="#f59e0b" />
      <stop offset="50%" stop-color="#ea580c" />
      <stop offset="100%" stop-color="#b45309" />
    </linearGradient>
  </defs>
  <rect width="192" height="192" rx="40" fill="url(#grad)" />
  <!-- Sprout / Plant Symbol -->
  <g fill="#ffffff" transform="translate(48, 44) scale(4)">
    <path d="M12 2a10 10 0 0 1 10 10c0 5.5-4.5 10-10 10a10 10 0 0 1-10-10C2 6.5 6.5 2 12 2zm0 2a8 8 0 0 0-8 8c0 4.4 3.6 8 8 8a8 8 0 0 0 8-8c0-4.4-3.6-8-8-8z" opacity="0.15"/>
    <path d="M7 16c0-4.4 3.6-8 8-8 0 4.4-3.6 8-8 8z" />
    <path d="M17 16c0-4.4-3.6-8-8-8 0 4.4 3.6 8 8 8z" opacity="0.75" />
    <path d="M12 10v10" stroke="#ffffff" stroke-width="2" stroke-linecap="round" />
  </g>
</svg>
